<svg version="1.0" xmlns="http://www.w3.org/2000/svg" width="900.000000ptpx" height="900.000000ptpx" viewBox="0 0 900.000000 900.000000" preserveAspectRatio="xMidYMid meet" transform="rotate(0) scale(1, 1)">

<g transform="translate(0.000000,900.000000) scale(0.100000,-0.100000)" fill="#ffffff" stroke="none">
<path d="M6345 7934 c-521 -48 -878 -128 -1295 -291 -189 -74 -359 -158 -346&#10;-170 2 -3 19 0 38 6 130 44 407 114 600 151 321 62 518 83 778 84 214 1 338&#10;-13 468 -50 153 -44 237 -105 288 -209 28 -59 54 -146 54 -187 l0 -28 -357 -1&#10;c-197 -1 -367 -4 -378 -7 -58 -19 -60 -23 -65 -144 l-5 -113 -212 -3 -212 -2&#10;-3 111 c-4 166 30 153 -436 157 -404 3 -444 1 -481 -27 -21 -16 -24 -27 -29&#10;-129 l-5 -112 -208 0 -209 0 0 105 c0 101 -1 107 -26 130 -37 34 -79 37 -494&#10;33 -329 -3 -368 -5 -391 -21 l-26 -17 -6 -241 -7 -241 145 -203 145 -204 0&#10;-303 c-1 -349 -16 -1247 -21 -1253 -11 -10 -275 -46 -412 -56 -333 -25 -698&#10;34 -880 142 -369 219 -364 601 16 1124 168 231 431 504 752 783 57 50 50 47&#10;-57 -20 -43 -26 -82 -48 -87 -48 -5 0 -11 -3 -13 -7 -1 -5 -50 -39 -108 -78&#10;-58 -38 -107 -72 -110 -75 -3 -3 -48 -37 -100 -75 -52 -39 -104 -77 -115 -87&#10;-512 -422 -802 -774 -936 -1139 -78 -213 -76 -367 6 -514 181 -324 786 -424&#10;1670 -274 168 28 621 144 736 188 30 11 96 81 144 154 l37 56 -30 38 c-85 109&#10;-68 223 68 432 85 133 126 227 167 383 15 54 30 98 34 98 35 0 98 -456 83&#10;-600 -9 -80 -32 -167 -59 -220 -31 -61 -114 -136 -160 -144 -29 -6 -42 -18&#10;-78 -74 -24 -37 -43 -68 -42 -70 2 -3 296 106 312 116 6 4 22 36 35 72 19 50&#10;22 71 15 91 -21 57 25 118 78 105 56 -14 57 -93 3 -126 -20 -12 -38 -35 -49&#10;-64 -9 -26 -13 -46 -9 -46 5 0 45 16 89 37 81 36 82 37 132 120 l51 83 -31 35&#10;c-69 79 -63 160 27 325 31 58 68 128 81 155 23 49 74 238 87 322 3 24 10 43&#10;14 43 20 0 79 -229 100 -387 14 -104 3 -218 -31 -309 -25 -65 -94 -144 -147&#10;-168 -36 -16 -74 -65 -101 -130 -4 -9 225 109 290 150 29 18 41 35 58 85 15&#10;44 18 67 11 79 -24 45 6 100 55 100 55 0 66 -77 16 -112 -23 -16 -59 -104 -38&#10;-92 112 64 161 102 191 154 72 119 101 190 77 190 -21 0 -51 87 -51 146 0 79&#10;11 115 80 258 65 135 87 207 95 316 3 41 8 91 11 110 5 32 7 33 20 16 17 -23&#10;65 -171 95 -291 30 -119 33 -305 6 -381 -28 -81 -73 -142 -130 -174 -43 -24&#10;-55 -38 -78 -89 -15 -34 -25 -61 -21 -61 8 1 211 159 265 207 30 26 39 45 53&#10;103 14 57 15 76 6 91 -17 27 -15 42 8 67 27 29 46 28 66 -4 16 -24 16 -26 -3&#10;-52 -20 -27 -41 -112 -28 -112 3 0 29 21 57 48 54 50 70 79 99 180 17 61 17&#10;62 -2 73 -65 34 -77 150 -32 315 21 79 27 127 29 238 2 77 6 141 8 143 7 7 85&#10;-104 114 -162 49 -99 72 -188 72 -279 0 -109 -20 -167 -79 -225 -34 -34 -49&#10;-58 -57 -95 l-12 -48 27 29 c201 229 202 230 216 321 11 66 11 79 -2 94 -31&#10;35 11 98 56 83 28 -9 34 -46 12 -75 -10 -14 -21 -45 -25 -69 l-7 -45 19 25&#10;c10 13 38 52 61 87 l43 64 -22 51 c-18 40 -21 63 -17 106 6 53 16 77 92 215&#10;21 38 51 117 66 174 16 58 30 107 33 109 8 8 32 -58 57 -153 17 -67 23 -117&#10;23 -204 0 -108 -2 -119 -31 -180 -36 -77 -66 -107 -124 -124 -38 -11 -51 -23&#10;-91 -82 -26 -38 -47 -72 -47 -76 -2 -12 42 5 61 24 24 24 43 23 61 -3 18 -25&#10;11 -56 -18 -75 -22 -14 -55 -10 -55 7 0 14 -84 -2 -93 -17 -4 -7 -50 -67 -102&#10;-134 -52 -66 -95 -123 -95 -125 0 -3 20 -5 45 -5 42 0 45 2 63 44 20 45 65 84&#10;117 104 17 6 75 18 130 27 82 12 118 24 198 64 53 27 97 44 97 38 0 -22 -89&#10;-177 -135 -237 -25 -33 -65 -73 -89 -89 -42 -29 -150 -71 -182 -71 -35 0 -97&#10;25 -124 50 -25 24 -33 26 -101 22 l-74 -3 -77 -82 -77 -82 32 -6 c20 -3 38 0&#10;49 9 21 17 58 12 72 -11 8 -13 7 -24 -4 -45 -19 -32 -45 -39 -69 -18 -9 8 -42&#10;18 -72 22 l-56 6 -79 -72 c-43 -39 -116 -102 -161 -138 -89 -73 -89 -75 -2&#10;-86 43 -6 45 -5 74 37 41 56 75 71 160 70 54 -1 95 -10 180 -39 109 -38 112&#10;-39 253 -38 78 0 142 -2 142 -6 0 -11 -95 -97 -143 -129 -121 -81 -257 -119&#10;-382 -105 -86 9 -149 39 -199 95 -24 27 -51 49 -60 49 -8 0 -51 7 -95 16 l-79&#10;16 -101 -70 -101 -70 35 -6 c26 -5 40 -3 51 9 18 18 55 20 72 3 19 -19 14 -73&#10;-7 -92 -25 -23 -73 -17 -85 10 -7 15 -25 24 -63 32 l-54 11 -97 -58 c-53 -32&#10;-130 -77 -169 -100 -40 -23 -73 -44 -73 -46 0 -2 20 -16 44 -30 l43 -25 44 44&#10;c59 58 109 72 205 58 39 -6 105 -25 148 -42 90 -36 182 -48 319 -42 65 3 97 1&#10;97 -6 0 -18 -151 -130 -226 -167 -238 -118 -498 -95 -575 51 -13 24 -29 44&#10;-35 44 -5 0 -40 18 -77 40 l-66 40 -90 -44 -90 -44 30 -13 c24 -9 38 -10 63&#10;-1 48 18 64 15 82 -13 35 -53 -18 -127 -79 -111 -19 4 -29 15 -35 38 -7 28&#10;-16 35 -64 51 l-56 19 -134 -55 c-73 -30 -155 -63 -183 -72 -27 -10 -54 -22&#10;-59 -26 -8 -7 90 -79 108 -79 5 0 26 16 47 34 43 40 106 60 152 51 62 -13 153&#10;-65 220 -124 120 -108 215 -161 384 -216 29 -9 55 -20 58 -24 2 -5 -19 -16&#10;-48 -25 -139 -45 -422 -76 -530 -59 -167 28 -279 125 -302 261 -6 36 -12 45&#10;-40 56 -18 8 -58 30 -89 50 -31 20 -61 36 -66 36 -6 0 -58 -16 -116 -35 -108&#10;-36 -407 -123 -499 -145 -477 -115 -1192 -190 -1809 -190 l-197 0 4 -472 c3&#10;-260 10 -507 16 -548 24 -177 64 -348 112 -490 38 -111 37 -109 95 -223 154&#10;-308 387 -562 764 -832 103 -74 292 -185 406 -240 786 -377 1110 -570 1439&#10;-860 44 -39 85 -74 92 -78 9 -6 74 40 193 136 114 92 385 280 490 339 25 14&#10;79 45 120 70 118 70 249 138 265 138 8 0 15 4 15 9 0 11 462 241 484 241 9 0&#10;16 5 16 10 0 6 4 10 10 10 27 0 321 183 460 287 186 138 284 228 409 377 188&#10;224 307 457 387 756 69 258 84 443 84 1013 0 258 -3 475 -8 483 -4 7 -35 33&#10;-69 56 -176 124 -273 261 -321 458 -30 120 -34 174 -22 260 6 41 14 95 17 120&#10;9 68 65 200 110 261 57 77 98 114 183 167 41 25 77 47 79 49 2 1 4 15 4 30 0&#10;16 -2 372 -3 793 -1 421 -6 831 -10 913 -7 140 -9 150 -41 213 -104 203 -342&#10;302 -739 309 -96 2 -193 1 -215 -1z m-3237 -4556 l-3 -153 -50 0 -49 0 -28 74&#10;c-42 115 -43 115 -208 119 l-140 4 0 -204 0 -203 152 0 c122 -1 162 -4 198&#10;-18 148 -58 207 -169 198 -369 -6 -118 -36 -188 -103 -244 -91 -74 -113 -78&#10;-457 -82 l-308 -4 0 31 c0 24 7 34 29 45 16 9 34 29 40 47 12 35 16 903 4 973&#10;-5 30 -14 43 -40 58 -25 15 -33 27 -33 49 l0 29 400 0 401 0 -3 -152z m1652&#10;-18 l0 -170 -54 0 -54 0 -27 87 c-18 57 -36 96 -55 115 -27 27 -32 28 -124 28&#10;l-96 0 0 -485 c0 -536 1 -543 59 -563 26 -9 31 -16 31 -41 l0 -31 -205 0 -205&#10;0 0 34 c0 28 5 35 25 40 49 12 50 19 53 518 3 512 1 538 -48 563 -23 12 -30&#10;22 -30 45 l0 30 365 0 365 0 0 -170z m980 10 l0 -160 -53 0 -53 0 -18 72 c-14&#10;54 -27 81 -51 105 -29 29 -39 33 -89 33 l-56 0 0 -489 c0 -300 4 -500 10 -516&#10;6 -15 24 -32 45 -41 29 -12 35 -19 35 -44 l0 -30 -209 0 c-122 0 -212 4 -216&#10;10 -11 17 7 60 24 60 10 0 28 12 42 26 l24 26 3 499 3 499 -61 0 c-54 0 -65&#10;-3 -89 -28 -25 -25 -49 -82 -65 -154 -6 -26 -10 -28 -61 -28 l-55 0 0 160 0&#10;160 445 0 445 0 0 -160z m490 130 c0 -23 -6 -33 -24 -40 -30 -11 -40 -40 -31&#10;-88 13 -69 158 -454 166 -440 4 7 38 97 74 198 44 122 69 206 72 247 6 62 5&#10;63 -26 80 -23 13 -31 25 -31 46 l0 27 155 0 155 0 0 -30 c0 -20 -7 -33 -22&#10;-41 -60 -32 -87 -88 -277 -564 -186 -468 -232 -552 -326 -596 -46 -21 -125&#10;-24 -191 -8 l-44 11 0 129 0 129 54 0 c53 0 55 -1 61 -32 12 -55 32 -78 68&#10;-78 18 0 43 7 55 16 27 18 82 111 82 138 0 21 -25 88 -180 485 -122 314 -141&#10;354 -176 370 -18 8 -24 19 -24 41 l0 30 205 0 205 0 0 -30z m-2387 -323 c53&#10;-31 88 -81 118 -167 21 -58 23 -84 24 -240 0 -157 -2 -182 -23 -245 -39 -119&#10;-106 -192 -207 -225 -47 -15 -198 -16 -237 -1 l-28 11 0 -118 c0 -145 10 -186&#10;50 -204 24 -10 30 -19 30 -45 l0 -33 -190 0 -190 0 0 34 c0 26 5 36 20 41 11&#10;4 28 18 38 33 16 24 17 70 17 537 0 555 1 547 -56 567 -26 9 -30 15 -27 42 l3&#10;31 153 3 153 3 -7 -68 -7 -68 54 51 c84 79 124 95 212 90 38 -3 72 -13 100&#10;-29z"/>
<path d="M2637 2893 c-4 -3 -7 -114 -7 -245 l0 -238 33 -2 c40 -2 80 0 135 7&#10;100 14 149 107 140 266 -9 159 -70 219 -219 219 -42 0 -79 -3 -82 -7z"/>
<path d="M3562 3040 c-21 -13 -41 -38 -54 -66 -18 -42 -19 -63 -16 -267 3&#10;-241 9 -268 63 -303 31 -20 88 -21 119 -1 70 46 104 264 72 472 -7 50 -21 105&#10;-30 122 -32 64 -92 80 -154 43z"/>
</g>
</svg>